<svg id="svg" version="1.1" xmlns="http://www.w3.org/2000/svg" xmlns:xlink="http://www.w3.org/1999/xlink" width="400" height="147.91666666666666" viewBox="0, 0, 400,147.91666666666666"><g id="svgg"><path id="path0" d="M59.725 21.292 C 59.491 21.544,59.193 21.956,59.062 22.208 L 58.825 22.667 71.162 22.667 C 79.791 22.667,83.500 22.613,83.500 22.489 C 83.500 22.299,82.697 21.165,82.418 20.961 C 82.325 20.894,77.278 20.837,71.200 20.836 L 60.151 20.833 59.725 21.292 M92.958 21.858 L 91.333 22.682 91.333 23.492 L 91.333 24.303 88.875 24.367 C 87.205 24.410,86.242 24.509,85.872 24.674 L 85.326 24.917 85.705 25.455 L 86.083 25.994 88.708 25.997 L 91.333 26.000 91.333 26.833 L 91.333 27.667 88.079 27.667 C 85.166 27.667,84.558 27.718,82.287 28.156 C 74.203 29.715,68.561 29.677,60.371 28.008 C 59.071 27.743,58.063 27.667,55.849 27.667 L 53.000 27.667 53.000 26.833 L 53.000 26.000 54.569 26.000 L 56.139 26.000 56.673 25.326 C 57.366 24.450,57.326 24.427,54.987 24.361 L 53.000 24.305 53.000 23.680 L 53.000 23.054 51.225 22.236 C 50.248 21.785,49.385 21.391,49.307 21.361 C 49.228 21.330,49.184 26.280,49.207 32.361 L 49.250 43.417 50.792 43.465 C 51.640 43.491,52.333 43.585,52.333 43.673 C 52.333 43.761,52.264 43.833,52.180 43.833 C 52.096 43.833,51.975 44.077,51.913 44.375 C 51.851 44.673,51.618 45.517,51.397 46.250 C 50.627 48.799,50.499 49.262,50.000 51.307 C 49.724 52.439,48.266 57.951,46.760 63.557 C 44.065 73.587,41.864 81.796,41.167 84.417 C 40.971 85.150,40.292 87.700,39.656 90.083 C 39.021 92.467,38.043 96.142,37.482 98.250 C 36.922 100.358,36.436 102.177,36.403 102.292 C 36.290 102.689,36.044 102.490,34.069 100.400 C 32.977 99.245,31.633 97.831,31.083 97.258 C 30.533 96.685,29.146 95.215,28.000 93.991 C 26.854 92.766,25.410 91.252,24.792 90.624 C 24.173 89.997,23.667 89.458,23.667 89.427 C 23.667 89.395,23.063 88.750,22.325 87.992 C 17.598 83.136,17.591 83.121,19.125 81.523 C 20.320 80.278,24.716 75.647,26.167 74.106 C 26.762 73.473,27.794 72.399,28.458 71.721 C 29.123 71.042,29.667 70.465,29.667 70.439 C 29.667 70.413,30.210 69.832,30.875 69.149 C 31.540 68.465,33.096 66.831,34.333 65.518 C 35.571 64.204,37.277 62.413,38.125 61.537 L 39.667 59.945 39.667 56.320 L 39.667 52.694 38.875 52.390 C 37.640 51.916,27.583 51.931,26.018 52.409 C 24.831 52.771,24.890 52.721,21.750 56.051 C 20.558 57.315,19.246 58.706,18.833 59.142 C 18.421 59.578,17.258 60.822,16.250 61.906 C 15.242 62.990,13.967 64.346,13.417 64.920 C 12.867 65.494,11.517 66.926,10.417 68.103 C 9.317 69.280,7.985 70.684,7.458 71.224 C 6.931 71.764,6.500 72.233,6.500 72.266 C 6.500 72.299,6.141 72.684,5.703 73.121 C 5.265 73.559,3.972 74.929,2.831 76.167 C 1.689 77.404,0.585 78.582,0.377 78.784 C 0.005 79.146,0.000 79.209,0.001 83.284 L 0.003 87.417 2.085 89.565 C 3.230 90.746,4.167 91.726,4.167 91.742 C 4.167 91.775,8.084 95.885,9.958 97.819 C 10.623 98.504,11.167 99.095,11.167 99.133 C 11.167 99.170,11.710 99.746,12.375 100.414 C 13.638 101.683,14.297 102.373,18.000 106.306 C 20.119 108.556,21.185 109.671,23.877 112.450 C 25.492 114.118,25.754 114.169,32.607 114.159 C 37.162 114.153,38.035 114.112,38.750 113.868 L 39.583 113.583 39.631 111.859 C 39.674 110.310,39.708 110.147,39.964 110.246 C 40.417 110.420,44.776 111.608,46.333 111.982 C 51.620 113.251,52.016 113.200,52.608 111.175 C 53.180 109.214,53.313 108.721,53.505 107.833 C 53.615 107.329,53.771 106.744,53.852 106.534 C 54.161 105.734,53.711 104.333,53.145 104.333 C 53.002 104.333,51.191 103.537,51.023 103.401 C 50.990 103.374,51.080 102.954,51.223 102.468 C 51.366 101.981,51.681 100.833,51.922 99.917 C 52.164 99.000,52.469 97.857,52.601 97.376 C 53.129 95.447,53.335 94.679,53.756 93.083 C 53.997 92.167,54.302 91.023,54.434 90.543 C 54.566 90.062,54.791 89.237,54.935 88.709 C 55.079 88.182,55.295 87.412,55.414 87.000 C 55.534 86.587,55.756 85.725,55.909 85.083 C 56.689 81.796,59.740 70.667,59.860 70.667 C 59.937 70.667,60.005 78.073,60.012 87.125 C 60.028 110.792,59.948 110.117,62.833 110.922 C 65.077 111.547,82.163 111.678,84.583 111.089 C 85.133 110.955,86.071 110.842,86.667 110.839 C 89.156 110.825,90.833 110.213,90.833 109.319 C 90.833 108.880,91.369 108.788,92.190 109.086 C 99.747 111.824,112.817 112.023,119.333 109.498 C 119.837 109.302,120.662 108.998,121.167 108.821 C 121.671 108.644,122.233 108.434,122.417 108.353 C 122.600 108.273,123.069 108.085,123.458 107.937 C 123.848 107.788,124.485 107.545,124.875 107.396 C 125.941 106.988,126.743 106.598,126.806 106.458 C 126.836 106.390,126.935 106.333,127.026 106.333 C 127.281 106.333,128.797 104.842,129.463 103.936 C 130.502 102.522,130.536 102.140,130.618 90.958 L 130.692 81.000 131.088 81.000 C 131.660 81.000,132.201 81.291,132.583 81.803 C 132.907 82.237,132.920 82.607,133.035 94.500 C 133.171 108.599,133.204 109.016,134.256 110.118 C 136.453 112.419,148.464 111.993,153.083 109.450 C 153.358 109.299,153.715 109.127,153.875 109.068 C 154.035 109.009,154.167 108.895,154.167 108.814 C 154.167 108.733,154.260 108.667,154.375 108.666 C 154.490 108.666,154.820 108.310,155.109 107.875 C 155.894 106.692,156.000 104.887,156.000 92.685 C 156.000 82.055,156.043 81.304,156.672 80.833 C 156.733 80.787,156.872 80.581,156.981 80.375 C 157.476 79.436,158.830 79.976,159.691 81.456 L 160.250 82.417 160.359 95.000 C 160.501 111.224,160.472 110.986,162.344 111.458 C 164.651 112.041,175.757 111.885,177.280 111.248 C 178.445 110.761,178.402 111.294,178.468 96.571 C 178.530 82.718,178.519 82.915,179.230 83.093 C 180.156 83.326,180.166 83.421,180.174 92.200 C 180.182 102.217,180.456 105.690,181.305 106.539 C 181.412 106.646,181.500 106.793,181.500 106.865 C 181.500 107.353,183.410 108.987,184.500 109.433 C 184.637 109.490,184.975 109.628,185.250 109.741 C 189.912 111.651,201.498 111.867,208.417 110.172 C 208.875 110.059,209.700 109.857,210.250 109.723 C 210.800 109.588,211.625 109.379,212.083 109.258 C 212.542 109.136,213.404 108.946,214.000 108.836 C 214.596 108.725,215.366 108.529,215.712 108.401 C 216.057 108.272,216.412 108.167,216.499 108.167 C 216.717 108.167,217.167 109.070,217.167 109.508 C 217.167 110.805,218.213 111.167,221.973 111.167 C 225.935 111.167,226.833 110.800,226.833 109.182 C 226.833 107.578,227.193 107.094,227.974 107.646 C 228.486 108.008,230.572 109.000,230.821 109.000 C 230.913 109.000,231.235 109.105,231.536 109.234 C 236.305 111.269,254.384 111.923,257.645 110.178 C 257.828 110.080,258.114 109.996,258.281 109.990 C 258.447 109.985,258.894 109.816,259.274 109.615 C 259.654 109.414,260.237 109.110,260.569 108.938 C 261.883 108.259,263.234 106.274,263.534 104.583 C 263.934 102.330,263.993 101.476,263.995 98.000 C 263.997 92.678,263.537 90.274,262.042 87.795 C 261.644 87.136,261.559 86.346,261.831 85.838 C 261.922 85.669,262.063 84.631,262.144 83.532 C 262.325 81.111,262.293 81.167,263.468 81.164 C 264.583 81.161,265.028 81.011,267.962 79.644 C 269.584 78.888,270.958 78.920,272.000 79.739 C 272.137 79.847,272.451 80.021,272.697 80.126 L 273.144 80.316 273.214 93.700 C 273.300 109.893,273.351 110.479,274.709 110.845 C 275.866 111.156,281.726 110.983,282.121 110.625 C 282.545 110.241,282.833 108.936,282.833 107.399 C 282.833 105.764,283.027 105.704,284.275 106.955 C 287.155 109.843,291.648 111.163,298.583 111.158 C 302.457 111.155,305.020 110.734,306.917 109.789 C 307.558 109.469,308.383 109.077,308.750 108.917 C 309.117 108.758,310.167 108.251,311.083 107.791 C 312.000 107.331,312.918 106.872,313.124 106.769 C 313.329 106.667,313.498 106.527,313.499 106.458 C 313.499 106.390,313.612 106.333,313.750 106.333 C 313.887 106.333,314.000 106.256,314.000 106.163 C 314.000 105.914,314.843 105.633,315.268 105.740 C 315.594 105.821,316.213 106.272,317.499 107.361 C 319.805 109.316,322.604 110.295,328.000 111.033 C 330.130 111.325,338.750 111.326,340.667 111.035 C 345.086 110.364,347.216 109.811,349.295 108.792 C 349.756 108.566,349.879 108.688,350.148 109.635 C 350.588 111.179,351.027 111.305,356.458 111.445 L 360.667 111.553 360.667 112.848 L 360.667 114.143 361.625 114.362 C 363.010 114.678,372.486 114.668,374.077 114.349 C 375.197 114.124,375.282 114.071,376.494 112.845 C 378.087 111.233,380.667 108.472,380.667 108.378 C 380.667 108.339,380.985 107.983,381.375 107.587 C 382.046 106.906,384.773 104.010,386.930 101.689 C 387.473 101.105,388.367 100.158,388.917 99.584 C 389.467 99.010,390.779 97.617,391.833 96.488 C 392.887 95.359,394.219 93.951,394.792 93.359 C 395.365 92.767,395.833 92.258,395.833 92.228 C 395.833 92.198,396.228 91.778,396.710 91.295 C 397.192 90.812,398.129 89.828,398.793 89.108 L 400.000 87.800 400.000 83.286 L 400.000 78.772 398.833 77.633 C 398.192 77.006,397.667 76.459,397.667 76.417 C 397.667 76.376,397.123 75.793,396.458 75.123 C 395.794 74.453,394.275 72.862,393.083 71.586 C 391.892 70.310,390.373 68.716,389.708 68.044 C 389.044 67.371,388.500 66.795,388.500 66.763 C 388.500 66.731,387.956 66.151,387.292 65.475 C 385.683 63.838,381.500 59.431,381.500 59.374 C 381.500 59.348,380.956 58.780,380.292 58.111 C 379.627 57.442,378.333 56.088,377.417 55.102 C 375.157 52.673,375.271 52.720,371.140 52.507 C 367.511 52.320,361.598 52.513,360.989 52.839 C 360.685 53.002,360.667 53.222,360.667 56.668 L 360.667 60.325 361.625 61.305 C 362.152 61.845,363.821 63.583,365.333 65.169 C 366.846 66.754,368.590 68.575,369.208 69.214 C 369.827 69.854,370.333 70.402,370.333 70.432 C 370.333 70.462,370.802 70.960,371.375 71.539 C 371.948 72.118,373.428 73.677,374.665 75.004 C 375.901 76.331,377.326 77.841,377.831 78.359 C 382.110 82.750,383.070 84.000,382.167 84.000 C 382.075 84.000,382.000 84.072,382.000 84.160 C 382.000 84.248,381.417 84.905,380.705 85.619 C 379.992 86.332,378.286 88.114,376.913 89.578 C 375.540 91.041,373.892 92.777,373.250 93.434 C 371.404 95.325,367.914 99.031,367.420 99.625 C 367.173 99.923,366.911 100.167,366.839 100.167 C 366.767 100.167,366.667 95.123,366.617 88.958 C 366.454 68.936,366.630 69.333,357.929 69.333 C 353.204 69.333,351.086 69.700,348.641 70.942 C 348.064 71.235,346.094 71.230,345.155 70.933 C 342.152 69.984,333.600 69.984,330.000 70.934 C 326.224 71.929,323.452 73.174,319.913 75.463 C 319.732 75.580,319.452 75.720,319.292 75.774 C 319.131 75.828,319.000 75.938,319.000 76.019 C 319.000 76.100,318.906 76.167,318.792 76.167 C 318.677 76.168,318.357 76.374,318.080 76.626 C 316.971 77.633,316.818 77.666,313.224 77.674 C 309.718 77.682,309.154 77.767,307.452 78.546 C 305.798 79.303,304.773 79.238,303.583 78.301 C 303.492 78.229,302.779 77.707,302.000 77.142 C 301.221 76.577,300.558 76.051,300.528 75.974 C 300.497 75.897,300.399 75.833,300.310 75.833 C 300.221 75.833,299.777 75.468,299.324 75.022 L 298.500 74.211 298.500 61.296 C 298.500 45.577,298.403 43.810,297.516 43.286 C 296.807 42.867,291.287 42.865,290.172 43.283 C 288.933 43.748,285.167 46.190,285.167 46.529 C 285.167 46.605,285.054 46.667,284.917 46.667 C 284.779 46.667,284.667 46.731,284.667 46.809 C 284.667 46.887,284.235 47.293,283.708 47.710 C 283.181 48.128,282.314 48.889,281.780 49.401 C 281.247 49.914,280.790 50.333,280.764 50.333 C 280.678 50.333,278.089 52.978,277.304 53.867 C 276.487 54.793,275.148 56.574,274.948 57.000 C 274.883 57.137,274.676 57.505,274.488 57.816 C 273.703 59.116,273.167 62.230,273.167 65.495 C 273.167 67.848,273.174 67.833,272.048 67.833 C 270.975 67.833,269.099 68.230,267.917 68.706 C 267.123 69.026,264.878 70.039,264.321 70.329 C 264.084 70.453,263.627 70.681,261.609 71.682 C 260.698 72.134,260.131 72.079,259.128 71.442 C 256.104 69.518,244.337 68.889,239.750 70.404 C 239.383 70.526,238.596 70.754,238.000 70.912 C 237.404 71.071,236.617 71.295,236.250 71.412 C 235.883 71.528,235.246 71.718,234.833 71.833 C 232.916 72.368,230.508 73.313,230.167 73.665 C 230.121 73.712,229.878 73.856,229.628 73.985 C 229.377 74.114,229.024 74.358,228.843 74.527 C 228.662 74.695,228.473 74.833,228.424 74.833 C 228.374 74.833,228.179 74.988,227.990 75.177 C 227.344 75.822,226.931 75.554,226.816 74.417 C 226.332 69.632,225.636 69.029,220.583 69.019 C 216.989 69.011,215.715 69.254,212.917 70.481 C 212.733 70.561,212.246 70.758,211.833 70.919 C 211.421 71.080,210.858 71.307,210.583 71.423 C 210.308 71.539,209.717 71.756,209.270 71.906 C 207.132 72.620,205.167 73.918,205.167 74.615 C 205.167 74.735,205.103 74.833,205.025 74.833 C 204.833 74.833,204.375 75.990,203.969 77.500 C 203.654 78.675,203.629 79.378,203.562 89.167 C 203.476 101.589,203.560 100.667,202.517 100.667 C 201.644 100.667,199.671 100.024,199.105 99.554 C 198.910 99.393,198.506 99.037,198.208 98.764 L 197.667 98.268 197.667 89.897 C 197.667 81.021,197.492 76.944,197.052 75.583 C 196.582 74.126,196.110 73.000,195.969 73.000 C 195.895 73.000,195.833 72.925,195.833 72.833 C 195.833 71.383,190.074 70.436,184.702 71.005 C 182.846 71.201,182.123 71.455,178.910 73.037 C 177.503 73.730,177.268 73.653,176.240 72.167 C 175.764 71.479,175.106 70.721,174.778 70.482 C 172.588 68.885,165.448 68.403,157.583 69.319 C 156.479 69.448,153.739 70.106,152.833 70.460 C 152.604 70.550,151.967 70.750,151.417 70.906 C 150.867 71.061,150.192 71.264,149.917 71.357 C 149.642 71.450,148.892 71.668,148.250 71.841 C 145.525 72.576,145.383 72.624,143.705 73.359 C 142.753 73.777,142.323 73.636,141.930 72.781 C 141.001 70.753,140.773 70.667,136.356 70.667 L 132.721 70.667 131.735 71.365 C 131.193 71.749,130.376 72.387,129.920 72.782 C 129.035 73.547,128.340 73.708,127.846 73.262 C 126.771 72.290,123.314 71.319,119.833 71.014 C 115.694 70.650,108.136 70.907,107.303 71.440 C 107.070 71.589,105.989 71.993,105.811 71.997 C 105.753 71.999,105.667 67.031,105.621 60.958 C 105.525 48.535,105.225 44.833,104.311 44.833 C 104.232 44.833,104.167 44.755,104.167 44.659 C 104.167 43.661,102.530 43.251,98.542 43.250 L 95.167 43.250 95.167 32.125 C 95.167 21.634,95.150 21.001,94.875 21.017 C 94.715 21.026,93.852 21.405,92.958 21.858 M57.500 24.458 C 57.500 24.613,60.268 25.410,62.022 25.761 C 63.096 25.977,64.698 26.006,72.355 25.949 L 81.417 25.881 83.167 25.394 C 86.630 24.431,86.518 24.422,71.208 24.374 C 63.669 24.351,57.500 24.389,57.500 24.458 M91.299 34.686 L 91.250 39.704 90.488 40.394 C 89.329 41.442,88.928 41.500,82.831 41.500 C 78.447 41.500,77.500 41.540,77.500 41.727 C 77.500 41.851,77.548 42.301,77.606 42.727 L 77.712 43.500 85.398 43.520 C 90.709 43.534,92.852 43.589,92.333 43.698 C 91.921 43.785,91.058 43.959,90.417 44.084 C 84.808 45.178,84.515 45.278,83.332 46.503 C 82.827 47.026,82.302 47.671,82.166 47.935 C 82.029 48.200,81.870 48.454,81.813 48.500 C 81.756 48.546,81.462 49.108,81.160 49.750 C 80.089 52.026,80.137 50.793,80.051 78.221 L 79.973 103.191 79.278 103.077 C 78.896 103.014,78.546 102.927,78.500 102.884 C 78.454 102.841,78.377 90.268,78.329 74.944 C 78.235 45.341,78.262 46.249,77.460 45.381 L 77.119 45.011 76.851 45.537 C 76.440 46.345,76.206 46.292,75.747 45.289 L 75.331 44.383 73.957 44.276 C 73.202 44.217,72.164 44.168,71.652 44.168 L 70.721 44.167 70.444 45.316 C 70.291 45.947,70.167 46.551,70.167 46.657 C 70.167 46.798,70.710 46.819,72.208 46.736 L 74.250 46.623 75.000 47.195 L 75.750 47.767 75.833 76.092 C 75.923 106.727,75.867 104.989,76.796 105.598 C 77.157 105.835,77.607 105.853,80.401 105.748 C 83.755 105.623,84.478 105.755,83.851 106.382 C 83.497 106.737,67.364 106.567,66.371 106.199 C 64.766 105.603,64.923 108.731,64.871 76.382 L 64.825 48.014 64.279 47.911 C 63.978 47.855,63.286 47.833,62.741 47.863 L 61.750 47.917 61.698 47.375 L 61.646 46.833 62.781 46.813 C 63.406 46.801,65.154 46.800,66.667 46.811 C 69.501 46.830,69.477 46.839,68.095 46.262 C 67.621 46.064,67.608 46.027,67.649 45.016 L 67.691 43.973 63.887 44.083 C 60.387 44.184,59.984 44.166,58.833 43.856 L 57.583 43.518 62.607 43.509 C 68.236 43.499,67.906 43.580,67.724 42.246 L 67.621 41.500 61.665 41.500 C 52.610 41.500,53.000 41.818,53.000 34.422 L 53.000 29.667 72.174 29.667 L 91.347 29.667 91.299 34.686 M58.111 31.278 C 57.732 31.657,58.006 35.521,58.441 35.925 L 58.882 36.333 63.203 36.333 C 66.823 36.333,67.564 36.293,67.774 36.083 C 67.931 35.926,68.174 35.871,68.429 35.935 C 68.690 36.000,68.833 35.965,68.833 35.835 C 68.833 35.724,69.040 35.435,69.292 35.192 C 69.545 34.949,69.851 34.465,69.973 34.117 C 70.220 33.410,70.283 33.548,69.024 32.042 L 68.293 31.167 63.258 31.167 C 60.488 31.167,58.172 31.217,58.111 31.278 M74.450 31.272 C 74.348 31.374,75.327 32.875,75.740 33.250 C 75.840 33.342,76.406 34.073,76.996 34.875 L 78.069 36.333 81.592 36.333 C 86.504 36.333,86.398 36.409,86.300 33.000 L 86.250 31.250 80.405 31.206 C 77.190 31.182,74.510 31.212,74.450 31.272 M72.510 39.042 C 72.290 39.788,71.804 40.672,71.383 41.093 C 70.909 41.567,70.538 42.536,70.659 42.986 L 70.774 43.417 72.950 43.463 C 75.409 43.515,75.362 43.540,75.168 42.262 C 75.074 41.641,74.933 41.364,74.580 41.106 C 74.315 40.914,73.872 40.243,73.552 39.550 C 72.899 38.137,72.793 38.085,72.510 39.042 M295.838 60.601 C 295.837 69.024,295.892 75.993,295.960 76.086 C 296.139 76.332,298.070 77.962,299.379 78.973 C 301.851 80.883,303.717 81.908,305.833 82.520 C 307.298 82.944,307.269 82.949,309.296 81.977 C 316.041 78.746,316.502 78.634,313.486 80.961 C 311.879 82.202,309.695 83.361,305.167 85.375 C 302.861 86.401,300.042 86.407,296.208 85.394 L 295.833 85.294 295.833 91.784 C 295.833 99.131,295.866 99.373,297.007 100.403 C 298.574 101.819,301.583 102.787,305.375 103.094 L 306.769 103.207 307.227 102.663 C 307.863 101.908,308.437 100.718,308.580 99.860 L 308.701 99.136 310.309 98.383 C 315.521 95.941,315.079 96.056,314.947 97.171 C 314.624 99.899,312.663 101.719,307.417 104.159 C 303.195 106.123,302.969 106.192,300.417 106.286 C 294.702 106.498,289.258 104.355,287.635 101.254 C 286.695 99.458,286.667 99.126,286.667 89.831 L 286.667 81.243 285.292 80.517 C 284.535 80.117,283.159 79.387,282.232 78.895 C 281.306 78.403,280.498 78.000,280.437 78.000 C 280.376 78.000,280.329 84.319,280.333 92.042 C 280.337 99.765,280.339 106.177,280.337 106.292 C 280.334 106.437,280.004 106.500,279.250 106.500 L 278.167 106.500 278.167 91.363 L 278.167 76.226 276.708 75.458 C 273.848 73.951,269.411 73.094,268.541 73.879 C 268.381 74.024,267.200 74.642,265.917 75.252 C 264.633 75.863,263.126 76.581,262.567 76.848 C 260.863 77.662,260.697 77.461,262.126 76.316 C 265.949 73.250,272.976 70.333,276.535 70.334 L 278.083 70.334 278.034 67.485 C 277.943 62.212,278.229 60.774,279.851 58.377 C 283.299 53.283,294.274 44.250,295.795 45.255 C 295.820 45.271,295.839 52.177,295.838 60.601 M100.583 45.683 C 101.807 46.016,102.397 46.884,102.823 48.976 C 102.949 49.598,103.002 57.341,102.998 74.450 L 102.991 99.030 103.343 99.598 C 104.691 101.779,107.408 102.736,112.277 102.744 L 115.638 102.750 116.359 102.243 C 117.345 101.550,117.313 101.974,117.324 89.741 L 117.333 79.065 116.904 78.203 C 116.169 76.729,114.824 75.879,112.455 75.391 C 110.998 75.091,110.823 75.098,107.667 75.583 L 107.083 75.673 107.750 75.338 C 108.117 75.154,109.296 74.662,110.371 74.244 L 112.325 73.485 115.579 73.480 C 123.131 73.470,126.564 74.717,127.399 77.773 C 127.546 78.310,127.779 79.132,127.917 79.598 C 128.126 80.307,128.166 81.936,128.165 89.515 L 128.163 98.583 127.306 99.725 C 126.323 101.033,125.263 101.926,124.076 102.444 C 121.863 103.410,115.421 105.690,114.167 105.952 C 112.369 106.326,104.707 106.376,102.583 106.027 C 97.484 105.191,94.454 104.021,93.317 102.450 L 92.833 101.783 92.833 76.470 C 92.833 47.941,92.951 50.307,91.502 49.683 C 90.136 49.096,89.833 49.132,89.384 49.935 C 88.499 51.516,88.506 51.280,88.503 79.708 L 88.500 106.000 86.748 106.000 L 84.996 106.000 85.040 79.458 L 85.083 52.917 85.701 51.653 C 87.616 47.735,88.246 47.443,98.417 45.759 C 99.150 45.638,99.787 45.530,99.833 45.520 C 99.879 45.510,100.217 45.583,100.583 45.683 M285.722 55.087 C 284.708 55.592,283.018 57.323,281.610 59.298 L 280.636 60.663 280.491 62.290 C 280.411 63.185,280.343 65.420,280.339 67.258 L 280.333 70.599 283.458 71.519 L 286.583 72.438 286.628 67.957 C 286.652 65.493,286.652 61.492,286.628 59.067 L 286.583 54.658 285.722 55.087 M222.778 71.548 C 224.587 72.562,224.692 73.733,224.631 92.167 L 224.583 106.417 223.167 106.417 L 221.750 106.417 221.651 92.167 C 221.534 75.433,221.687 76.801,219.833 75.879 C 218.152 75.043,218.075 75.033,217.916 75.625 C 217.848 75.877,217.763 81.633,217.726 88.417 C 217.652 102.361,217.729 101.193,216.818 102.228 C 215.769 103.419,214.377 103.862,205.750 105.747 C 197.280 107.598,187.766 105.968,185.750 102.321 L 185.250 101.417 185.161 91.167 C 185.058 79.272,184.957 78.539,183.228 77.179 C 182.656 76.729,182.866 76.678,180.312 77.892 C 177.052 79.441,176.866 79.453,178.332 78.017 C 179.110 77.255,179.761 76.877,182.250 75.743 C 182.800 75.492,184.037 74.917,185.000 74.466 C 188.487 72.830,192.653 73.099,193.831 75.037 C 194.912 76.814,194.902 76.692,194.997 88.764 L 195.083 99.779 195.544 100.443 C 196.998 102.541,202.031 103.989,206.434 103.576 L 207.641 103.463 208.029 102.607 L 208.417 101.750 208.506 90.500 C 208.626 75.198,208.164 76.377,215.111 73.643 C 221.117 71.279,221.912 71.062,222.778 71.548 M171.000 71.919 C 172.912 72.426,174.422 74.053,175.535 76.805 L 175.917 77.750 175.962 92.272 C 175.998 103.907,175.965 106.807,175.795 106.856 C 175.679 106.889,173.278 106.896,170.461 106.870 L 165.339 106.824 165.294 92.952 L 165.250 79.080 164.500 77.759 C 163.060 75.223,162.219 74.810,158.508 74.816 C 155.683 74.821,155.690 74.819,154.838 76.115 C 153.411 78.285,153.500 77.303,153.500 90.826 C 153.500 102.577,153.493 102.826,153.161 103.388 C 151.369 106.425,139.957 107.999,138.280 105.440 C 138.038 105.070,138.005 103.704,137.963 92.222 L 137.917 79.417 137.519 78.333 C 136.879 76.590,136.560 76.065,136.003 75.835 C 135.451 75.606,135.687 75.528,132.292 77.063 C 131.097 77.603,131.061 77.391,132.208 76.566 C 132.690 76.219,133.908 75.287,134.917 74.493 C 138.026 72.044,138.925 72.294,140.252 75.974 L 140.667 77.124 140.667 90.037 L 140.667 102.951 141.075 103.392 C 141.555 103.909,141.811 103.933,142.869 103.553 C 143.966 103.160,143.898 103.878,144.004 91.583 C 144.107 79.565,144.062 80.172,144.988 78.357 C 145.439 77.473,146.593 76.350,147.618 75.796 C 148.267 75.446,156.140 72.994,159.583 72.070 C 161.893 71.450,168.881 71.358,171.000 71.919 M361.497 72.015 C 364.002 72.552,364.159 73.607,364.163 89.917 C 364.164 96.150,364.117 102.431,364.057 103.875 L 363.948 106.500 359.400 106.500 L 354.852 106.500 354.788 92.375 C 354.713 75.590,354.742 75.875,353.020 75.359 C 351.977 75.047,351.797 75.120,351.031 76.173 C 349.969 77.632,350.000 77.209,350.000 90.099 L 350.000 101.950 349.515 102.620 C 347.014 106.072,336.293 107.531,327.658 105.594 C 322.918 104.531,317.657 100.110,316.222 95.984 C 314.431 90.834,318.377 81.112,323.417 78.257 C 323.875 77.998,324.813 77.426,325.500 76.987 C 326.863 76.116,329.387 74.825,330.529 74.415 C 332.176 73.823,332.631 73.678,333.583 73.441 C 336.145 72.804,339.688 72.625,342.148 73.008 C 343.955 73.289,347.167 74.361,347.167 74.682 C 347.167 74.841,347.210 74.828,343.750 75.678 L 340.917 76.374 339.917 76.025 C 336.373 74.790,333.233 75.492,330.462 78.140 C 325.821 82.574,324.151 89.642,326.621 94.397 C 328.029 97.106,332.554 100.857,335.667 101.894 C 342.422 104.144,345.232 104.160,346.497 101.956 L 346.997 101.083 347.000 90.167 C 347.004 75.098,346.894 75.353,354.583 72.547 C 356.285 71.925,359.814 71.654,361.497 72.015 M254.250 72.574 C 258.185 73.350,259.821 75.663,259.830 80.461 L 259.833 82.005 255.292 81.961 L 250.750 81.917 250.811 80.149 C 250.901 77.529,250.528 76.950,248.247 76.166 C 246.681 75.627,243.926 75.167,242.266 75.167 L 240.715 75.167 239.891 76.042 C 235.982 80.194,236.719 84.260,241.646 85.716 C 242.589 85.995,243.527 86.061,248.083 86.170 C 256.166 86.364,257.830 86.853,259.714 89.588 C 261.255 91.825,261.974 96.474,261.341 100.110 C 260.484 105.029,256.776 106.493,246.000 106.164 C 233.946 105.795,227.261 101.860,228.287 95.737 L 228.424 94.917 232.712 94.872 L 237.000 94.828 237.000 95.733 C 237.000 100.138,239.026 102.867,243.083 103.928 C 244.574 104.318,250.157 104.354,250.612 103.977 C 251.631 103.131,252.461 101.655,252.748 100.175 C 253.733 95.107,251.899 91.640,247.388 90.045 L 246.083 89.583 240.083 89.569 C 233.300 89.554,232.684 89.461,231.048 88.217 C 226.337 84.632,229.656 77.239,237.083 74.775 C 239.828 73.864,244.831 72.512,246.167 72.320 C 247.595 72.114,252.739 72.276,254.250 72.574 M108.917 80.229 C 110.665 80.547,111.729 81.255,112.156 82.386 C 112.441 83.141,112.398 99.348,112.110 99.742 C 111.466 100.623,107.867 99.782,106.327 98.391 L 105.667 97.795 105.667 88.897 L 105.667 80.000 106.708 80.009 C 107.281 80.014,108.275 80.113,108.917 80.229 M243.652 80.618 C 245.073 81.053,245.833 81.578,245.836 82.127 C 245.837 82.378,245.881 82.745,245.934 82.942 C 246.131 83.674,243.312 83.549,241.917 82.764 C 240.021 81.698,241.441 79.942,243.652 80.618 M341.918 81.002 C 342.048 81.213,342.025 99.001,341.893 99.659 C 341.746 100.397,341.134 100.577,339.908 100.242 C 339.363 100.093,338.692 99.913,338.417 99.843 C 337.247 99.543,335.400 98.786,335.167 98.511 C 335.121 98.458,334.802 98.266,334.458 98.086 C 334.115 97.905,333.833 97.700,333.833 97.629 C 333.833 97.558,333.766 97.500,333.684 97.500 C 333.303 97.500,329.454 93.779,329.151 93.118 C 329.058 92.916,328.840 92.487,328.666 92.167 C 328.283 91.461,328.222 89.393,328.557 88.500 C 329.035 87.227,330.038 85.310,330.458 84.864 C 330.573 84.742,330.667 84.589,330.667 84.522 C 330.667 84.456,330.967 84.080,331.333 83.687 C 331.700 83.294,332.000 82.903,332.000 82.819 C 332.000 82.735,332.085 82.667,332.189 82.667 C 332.293 82.667,332.537 82.487,332.731 82.267 C 332.925 82.048,333.421 81.638,333.833 81.356 L 334.583 80.844 338.198 80.839 C 340.459 80.835,341.853 80.896,341.918 81.002 M311.084 89.458 C 311.014 90.077,310.909 91.371,310.853 92.333 L 310.750 94.083 310.221 94.135 C 309.930 94.163,309.602 94.294,309.492 94.426 C 309.382 94.559,309.214 94.667,309.118 94.667 C 308.957 94.667,308.450 94.894,305.833 96.138 C 304.691 96.681,304.316 97.049,303.936 98.000 C 303.254 99.706,303.157 99.833,302.544 99.833 C 301.856 99.833,299.860 98.864,299.116 98.169 L 298.583 97.672 298.529 94.358 L 298.476 91.045 301.113 90.944 C 304.802 90.804,305.759 90.548,309.333 88.741 C 309.746 88.532,310.337 88.355,310.648 88.347 L 311.213 88.333 311.084 89.458 M244.083 94.942 C 247.664 96.624,248.743 99.437,246.519 101.292 C 245.443 102.190,242.089 100.910,240.667 99.058 C 239.922 98.088,239.102 95.176,239.426 94.651 C 239.625 94.329,243.262 94.557,244.083 94.942 " stroke="none" fill="#434343" fill-rule="evenodd"></path><path id="path1" d="M67.792 6.621 C 67.082 7.059,65.769 7.873,64.875 8.431 C 63.981 8.989,62.435 9.951,61.438 10.568 C 60.442 11.186,59.017 12.084,58.272 12.566 C 57.526 13.047,56.017 13.993,54.917 14.668 C 53.817 15.343,52.685 16.068,52.401 16.281 C 52.117 16.493,51.832 16.667,51.767 16.667 C 51.702 16.667,51.034 17.067,50.283 17.557 C 49.531 18.046,48.453 18.729,47.886 19.073 C 47.320 19.418,46.821 19.793,46.777 19.907 C 46.683 20.150,48.781 21.333,49.307 21.333 C 49.499 21.333,50.412 21.694,51.334 22.135 C 52.257 22.576,52.974 22.839,52.928 22.719 C 52.866 22.558,53.042 22.500,53.589 22.500 C 53.998 22.500,54.333 22.425,54.333 22.333 C 54.333 22.234,54.972 22.167,55.917 22.167 C 56.861 22.167,57.500 22.099,57.500 22.000 C 57.500 21.908,57.800 21.833,58.167 21.833 C 58.983 21.833,58.971 21.743,58.322 23.016 C 58.057 23.535,58.244 23.578,58.574 23.074 C 58.731 22.834,58.819 22.597,58.770 22.548 C 58.638 22.416,59.626 21.033,59.993 20.837 C 60.165 20.745,60.876 19.863,61.573 18.876 C 62.269 17.890,63.479 16.183,64.261 15.083 C 65.043 13.983,66.314 12.183,67.085 11.083 C 67.856 9.983,68.584 8.955,68.702 8.799 C 68.889 8.551,69.034 8.537,69.833 8.691 C 70.726 8.863,72.904 8.802,73.593 8.585 C 73.886 8.493,74.102 8.734,75.072 10.239 C 75.697 11.207,76.274 12.000,76.354 12.000 C 76.434 12.000,76.500 12.078,76.500 12.173 C 76.500 12.268,77.050 13.150,77.722 14.132 C 78.393 15.113,79.566 16.834,80.327 17.954 C 81.088 19.075,81.788 19.945,81.881 19.887 C 81.978 19.827,82.001 19.864,81.935 19.971 C 81.811 20.171,82.133 20.922,82.280 20.775 C 82.398 20.658,82.006 19.500,81.848 19.500 C 81.779 19.500,81.722 19.385,81.722 19.244 C 81.722 19.069,81.776 19.043,81.894 19.161 C 82.115 19.382,83.000 19.386,83.000 19.167 C 83.000 19.067,83.634 19.000,84.569 19.000 C 85.433 19.000,86.164 18.938,86.194 18.862 C 86.225 18.787,87.542 18.598,89.122 18.442 C 92.018 18.157,92.466 18.192,92.856 18.730 C 92.915 18.810,93.038 18.830,93.129 18.773 C 93.221 18.717,93.384 18.777,93.492 18.908 C 93.601 19.038,94.003 19.306,94.386 19.504 C 95.509 20.082,94.938 19.665,91.750 17.579 C 90.100 16.498,87.813 14.999,86.667 14.247 C 83.212 11.980,79.864 9.794,77.750 8.426 C 76.650 7.715,75.450 6.926,75.083 6.674 C 73.817 5.803,73.774 5.794,72.658 6.170 C 71.579 6.533,71.666 6.540,69.417 5.917 C 69.197 5.856,68.645 6.095,67.792 6.621 M95.415 20.184 C 95.597 20.404,95.766 20.615,95.790 20.653 C 95.814 20.691,95.833 20.600,95.833 20.450 C 95.833 20.301,95.665 20.090,95.458 19.982 L 95.083 19.785 95.415 20.184 M53.271 23.164 C 53.514 23.395,54.770 23.871,54.547 23.647 C 54.435 23.536,54.070 23.350,53.734 23.234 C 53.399 23.119,53.191 23.087,53.271 23.164 M55.407 24.086 C 55.585 24.222,55.879 24.333,56.060 24.333 C 56.482 24.333,56.390 24.262,55.667 24.027 C 55.137 23.855,55.113 23.861,55.407 24.086 M70.875 26.782 C 71.035 26.823,71.298 26.823,71.458 26.782 C 71.619 26.740,71.487 26.705,71.167 26.705 C 70.846 26.705,70.715 26.740,70.875 26.782 M76.250 37.000 C 76.392 37.275,76.546 37.500,76.592 37.500 C 76.638 37.500,76.559 37.275,76.417 37.000 C 76.274 36.725,76.121 36.500,76.075 36.500 C 76.029 36.500,76.108 36.725,76.250 37.000 M72.276 37.638 C 72.124 37.806,71.998 38.012,71.995 38.096 C 71.987 38.330,71.208 39.167,70.998 39.167 C 70.897 39.167,70.850 39.226,70.895 39.299 C 70.940 39.371,70.738 39.447,70.447 39.467 C 70.155 39.487,69.719 39.583,69.478 39.680 C 68.893 39.917,67.903 39.818,67.962 39.529 C 67.988 39.408,67.937 39.353,67.849 39.407 C 67.762 39.461,67.658 39.335,67.618 39.127 C 67.578 38.920,67.535 39.135,67.523 39.605 C 67.510 40.075,67.623 41.005,67.774 41.672 C 67.980 42.586,68.002 42.958,67.863 43.182 C 67.746 43.369,67.715 43.883,67.779 44.573 L 67.882 45.667 68.774 45.692 C 69.265 45.705,69.746 45.724,69.842 45.733 C 70.318 45.779,70.975 43.409,70.519 43.290 C 70.242 43.218,70.221 43.119,70.345 42.479 C 70.422 42.078,70.489 41.694,70.493 41.625 C 70.497 41.556,70.608 41.500,70.740 41.500 C 71.058 41.500,71.139 41.347,71.427 40.210 C 71.717 39.065,72.137 38.026,72.474 37.625 C 72.799 37.238,72.628 37.249,72.276 37.638 M76.895 38.605 C 76.955 39.051,76.919 39.114,76.646 39.043 C 76.406 38.980,76.354 39.026,76.432 39.230 C 76.511 39.437,76.433 39.500,76.096 39.500 C 75.854 39.500,75.615 39.392,75.564 39.261 C 75.514 39.129,75.367 39.062,75.237 39.111 C 75.108 39.161,75.043 39.269,75.094 39.351 C 75.352 39.769,74.982 39.424,74.672 38.958 C 74.459 38.638,74.348 38.553,74.401 38.750 C 74.450 38.933,74.611 39.608,74.758 40.249 C 74.905 40.889,75.089 41.490,75.166 41.583 C 75.243 41.675,75.338 42.014,75.376 42.334 C 75.443 42.883,75.448 42.875,75.473 42.198 C 75.511 41.187,75.833 41.482,75.833 42.528 C 75.833 43.216,75.787 43.351,75.577 43.271 C 75.130 43.099,75.135 43.585,75.593 44.728 C 76.214 46.280,76.716 46.373,76.939 44.978 C 77.017 44.496,77.121 44.333,77.355 44.333 C 77.574 44.333,77.667 44.213,77.667 43.930 C 77.667 43.253,77.497 42.962,77.231 43.183 C 77.039 43.342,77.003 43.223,77.020 42.479 C 77.036 41.721,77.059 41.660,77.167 42.083 L 77.294 42.583 77.314 42.056 C 77.324 41.765,77.422 41.498,77.530 41.462 C 77.677 41.413,77.658 41.052,77.452 40.026 C 77.170 38.619,76.755 37.561,76.895 38.605 M295.707 51.937 L 295.667 55.957 294.875 56.059 C 294.440 56.116,293.540 56.211,292.875 56.272 C 292.210 56.332,291.667 56.438,291.667 56.507 C 291.667 56.576,291.048 56.686,290.292 56.753 C 289.535 56.819,288.879 56.929,288.833 56.997 C 288.787 57.065,288.356 57.157,287.875 57.202 L 287.000 57.284 287.000 55.892 C 287.000 54.554,286.986 54.501,286.625 54.519 C 286.343 54.534,286.322 54.558,286.542 54.615 C 286.815 54.686,286.833 55.258,286.833 63.659 L 286.833 72.626 283.542 71.668 L 280.250 70.709 280.201 69.884 C 280.174 69.431,280.221 67.173,280.306 64.867 L 280.461 60.674 281.602 59.129 C 282.229 58.279,283.188 57.115,283.731 56.542 C 284.275 55.969,284.669 55.500,284.608 55.500 C 284.460 55.500,283.031 56.951,282.500 57.639 C 282.152 58.089,281.939 58.195,281.208 58.279 C 280.135 58.403,280.134 58.390,281.182 57.024 C 281.978 55.987,281.987 55.964,281.329 56.667 C 280.388 57.671,279.419 59.115,278.777 60.470 L 278.250 61.583 278.198 66.058 L 278.147 70.533 277.448 70.457 C 276.364 70.340,273.707 70.649,272.600 71.022 C 269.679 72.006,264.038 74.898,262.307 76.298 C 261.031 77.330,261.290 77.359,263.282 76.406 C 264.181 75.976,265.620 75.294,266.479 74.891 C 267.338 74.488,268.230 74.010,268.460 73.829 C 269.614 72.922,274.084 73.807,277.230 75.566 L 278.333 76.183 278.333 91.258 L 278.333 106.333 279.352 106.333 L 280.371 106.333 280.309 92.083 C 280.274 84.246,280.303 77.833,280.373 77.833 C 280.444 77.833,281.929 78.593,283.674 79.521 L 286.847 81.209 286.826 89.730 C 286.813 94.416,286.854 98.475,286.917 98.750 C 287.795 102.639,290.246 104.610,295.751 105.851 C 297.123 106.161,302.343 106.165,303.250 105.857 C 309.629 103.693,313.883 100.644,314.752 97.613 C 315.120 96.330,315.121 96.330,313.046 97.250 C 309.088 99.007,308.724 99.232,308.623 99.987 C 308.507 100.854,307.970 101.956,307.288 102.729 L 306.750 103.339 305.000 103.178 C 300.436 102.758,297.160 101.389,296.208 99.505 C 295.855 98.806,295.576 85.167,295.915 85.167 C 295.960 85.167,296.578 85.332,297.290 85.535 C 299.015 86.026,302.779 86.076,304.116 85.624 C 307.834 84.370,314.982 80.370,314.996 79.536 C 314.999 79.382,314.916 79.366,314.705 79.480 C 313.879 79.922,308.438 82.500,308.331 82.500 C 308.263 82.500,308.122 82.603,308.017 82.729 C 307.072 83.868,301.684 81.209,297.333 77.457 L 295.917 76.235 295.832 62.076 C 295.785 54.288,295.729 49.726,295.707 51.937 M283.705 54.045 C 282.859 54.894,282.167 55.644,282.167 55.711 C 282.167 55.778,282.298 55.694,282.458 55.523 C 282.619 55.352,283.348 54.602,284.079 53.856 C 284.811 53.110,285.372 52.500,285.326 52.500 C 285.281 52.500,284.551 53.195,283.705 54.045 M285.375 54.998 C 284.622 55.457,284.693 55.569,285.458 55.131 C 286.228 54.690,286.259 54.667,286.069 54.667 C 285.985 54.668,285.673 54.817,285.375 54.998 M85.045 86.208 L 85.026 105.833 86.763 105.833 L 88.500 105.833 88.461 88.875 C 88.428 74.440,88.409 73.285,88.336 81.111 C 88.289 86.168,88.212 90.341,88.167 90.384 C 88.065 90.480,85.345 90.725,85.306 90.642 C 85.291 90.610,85.230 85.183,85.171 78.583 C 85.067 67.012,85.062 67.284,85.045 86.208 M220.583 71.700 C 218.504 72.422,211.306 75.264,210.855 75.541 C 210.137 75.981,209.411 77.127,208.994 78.476 C 208.683 79.482,208.666 80.081,208.661 90.476 L 208.656 101.417 208.198 102.500 L 207.740 103.583 205.495 103.633 C 200.603 103.740,196.863 102.596,195.458 100.562 L 195.000 99.899 194.998 89.408 C 194.995 78.189,194.981 77.964,194.138 75.945 C 193.352 74.060,192.375 73.595,189.181 73.588 C 187.664 73.585,187.093 73.639,187.041 73.793 C 187.003 73.908,186.908 73.963,186.831 73.915 C 186.286 73.579,178.291 77.812,177.824 78.684 C 177.614 79.077,177.680 79.052,180.583 77.652 C 182.986 76.493,183.348 76.564,184.268 78.372 C 185.182 80.167,185.192 80.302,185.176 90.583 C 185.159 102.361,185.181 102.480,187.679 104.149 C 190.842 106.261,199.278 106.984,205.504 105.676 C 212.539 104.199,215.751 103.223,216.595 102.306 C 217.736 101.066,217.650 102.176,217.702 88.107 C 217.736 78.999,217.803 75.297,217.936 75.164 C 218.164 74.937,220.456 75.850,221.059 76.408 C 221.761 77.059,221.833 78.611,221.833 93.053 L 221.833 106.333 223.167 106.333 L 224.500 106.333 224.499 91.458 C 224.497 76.008,224.429 74.150,223.813 72.876 C 223.204 71.615,222.044 71.193,220.583 71.700 M162.792 71.784 C 162.998 71.824,163.335 71.824,163.542 71.784 C 163.748 71.745,163.579 71.712,163.167 71.712 C 162.754 71.712,162.585 71.745,162.792 71.784 M168.292 71.784 C 168.498 71.824,168.835 71.824,169.042 71.784 C 169.248 71.745,169.079 71.712,168.667 71.712 C 168.254 71.712,168.085 71.745,168.292 71.784 M356.242 72.243 C 355.190 72.435,351.953 73.674,350.285 74.525 C 349.448 74.952,348.434 75.983,347.981 76.868 C 347.106 78.580,347.114 78.466,347.012 90.417 L 346.917 101.583 346.459 102.287 C 345.231 104.176,343.330 104.241,337.590 102.589 C 333.185 101.322,329.611 98.900,327.236 95.573 C 321.230 87.156,330.579 72.293,339.667 75.812 C 340.856 76.272,340.919 76.267,344.250 75.429 L 347.083 74.716 346.083 74.258 C 341.246 72.042,333.621 72.649,328.000 75.698 C 323.049 78.383,321.006 80.018,319.291 82.667 C 313.496 91.615,315.251 99.340,324.188 104.232 C 330.509 107.691,346.114 106.687,349.401 102.610 L 349.917 101.969 350.000 89.610 L 350.083 77.250 350.917 76.125 C 351.794 74.940,351.879 74.899,352.875 75.175 C 354.947 75.751,354.899 75.353,354.932 92.333 L 354.960 106.417 359.300 106.417 C 361.686 106.417,363.702 106.354,363.778 106.278 C 363.854 106.202,363.943 100.127,363.975 92.778 C 364.057 74.149,363.903 72.726,361.746 72.183 C 360.787 71.942,357.718 71.975,356.242 72.243 M172.388 72.711 C 172.924 73.021,174.040 74.569,174.765 76.007 C 174.790 76.056,174.553 76.067,174.238 76.030 C 173.924 75.994,173.667 76.035,173.667 76.123 C 173.667 76.211,172.654 76.381,171.417 76.500 C 170.179 76.619,169.167 76.773,169.167 76.841 C 169.167 76.909,168.492 77.018,167.667 77.083 C 166.842 77.149,166.167 77.269,166.167 77.351 C 166.167 77.982,164.709 77.458,164.149 76.625 C 163.587 75.790,162.659 74.992,162.267 75.007 C 162.166 75.011,162.367 75.164,162.714 75.347 C 163.144 75.575,163.589 76.062,164.115 76.882 C 165.533 79.094,165.407 77.632,165.500 92.948 L 165.583 106.647 170.708 106.719 L 175.833 106.791 175.833 92.474 C 175.833 78.387,175.828 78.139,175.485 77.120 C 175.026 75.756,173.176 72.933,172.518 72.593 C 171.759 72.200,171.661 72.289,172.388 72.711 M245.755 72.509 C 244.447 72.713,237.402 74.731,236.100 75.275 C 227.691 78.787,226.400 87.657,234.061 89.278 C 235.041 89.485,236.069 89.509,239.917 89.415 C 247.780 89.224,250.585 90.308,252.533 94.292 C 253.640 96.554,253.229 100.912,251.724 102.866 C 250.579 104.355,250.633 104.336,247.401 104.346 C 240.347 104.369,237.346 102.155,237.046 96.708 L 236.952 95.000 232.746 95.000 L 228.539 95.000 228.438 95.375 C 227.725 98.038,229.605 101.508,232.694 103.228 C 239.620 107.083,255.513 107.297,259.479 103.587 C 262.461 100.798,262.034 91.939,258.755 88.581 C 257.059 86.844,255.510 86.513,248.250 86.336 C 242.711 86.200,242.047 86.118,240.333 85.355 C 236.629 83.705,236.321 79.727,239.622 76.162 L 240.742 74.953 242.746 75.055 C 246.325 75.237,249.740 76.267,250.554 77.408 C 250.880 77.865,250.915 78.116,250.901 79.875 L 250.886 81.833 255.276 81.833 L 259.667 81.833 259.664 80.208 C 259.657 75.738,258.151 73.567,254.490 72.750 C 253.027 72.424,247.312 72.266,245.755 72.509 M117.044 73.620 C 117.297 73.658,117.672 73.657,117.877 73.617 C 118.082 73.578,117.875 73.546,117.417 73.548 C 116.958 73.549,116.791 73.581,117.044 73.620 M65.071 89.583 C 65.085 106.317,65.031 105.466,66.113 106.001 C 66.627 106.256,82.540 106.652,83.415 106.432 C 84.713 106.106,83.627 105.916,80.402 105.905 C 75.161 105.887,75.686 107.453,75.631 91.667 C 75.606 84.664,75.567 82.131,75.542 85.857 L 75.496 92.465 75.123 92.554 C 74.918 92.604,74.131 92.696,73.375 92.760 C 72.619 92.824,72.000 92.934,72.000 93.004 C 72.000 93.074,71.325 93.185,70.500 93.250 C 69.675 93.315,69.000 93.429,69.000 93.503 C 69.000 93.576,68.362 93.690,67.583 93.755 C 66.804 93.820,66.167 93.939,66.167 94.020 C 66.167 94.146,65.378 94.242,65.309 94.125 C 65.295 94.102,65.233 89.658,65.171 84.250 C 65.064 74.879,65.059 75.129,65.071 89.583 M157.881 74.623 C 158.412 74.657,159.237 74.656,159.714 74.623 C 160.192 74.589,159.758 74.562,158.750 74.562 C 157.742 74.563,157.351 74.590,157.881 74.623 M108.208 75.110 C 108.094 75.157,108.000 75.272,108.000 75.368 C 108.000 75.479,108.081 75.473,108.229 75.351 C 108.355 75.246,108.599 75.207,108.771 75.263 C 109.029 75.347,109.040 75.333,108.833 75.185 C 108.562 74.990,108.520 74.985,108.208 75.110 M110.125 75.118 C 110.331 75.157,110.669 75.157,110.875 75.118 C 111.081 75.078,110.912 75.045,110.500 75.045 C 110.087 75.045,109.919 75.078,110.125 75.118 M154.833 75.667 C 154.638 75.942,154.515 76.167,154.561 76.167 C 154.606 76.167,154.804 75.942,155.000 75.667 C 155.196 75.392,155.319 75.167,155.273 75.167 C 155.227 75.167,155.029 75.392,154.833 75.667 M132.814 76.292 C 132.803 76.360,132.806 76.482,132.820 76.562 C 132.835 76.642,132.746 76.669,132.622 76.621 C 132.498 76.573,132.213 76.675,131.990 76.847 C 131.393 77.306,131.931 77.236,132.833 76.737 C 133.246 76.510,133.405 76.371,133.187 76.429 C 132.920 76.501,132.828 76.476,132.906 76.351 C 132.968 76.250,132.978 76.167,132.927 76.167 C 132.875 76.167,132.824 76.223,132.814 76.292 M146.583 76.640 C 146.400 76.803,146.026 77.194,145.752 77.510 C 145.478 77.825,145.647 77.711,146.127 77.256 C 146.916 76.509,147.085 76.322,146.958 76.339 C 146.935 76.342,146.767 76.478,146.583 76.640 M153.930 77.046 C 153.700 77.438,153.408 78.169,153.280 78.671 L 153.047 79.583 152.273 79.634 C 151.848 79.662,151.500 79.743,151.500 79.813 C 151.500 79.884,150.544 80.041,149.375 80.162 C 148.206 80.283,147.212 80.437,147.167 80.503 C 147.121 80.569,146.491 80.678,145.768 80.745 L 144.452 80.866 144.555 80.391 C 144.612 80.130,144.699 79.729,144.749 79.500 C 144.799 79.271,144.710 79.383,144.551 79.750 C 144.288 80.354,144.252 81.473,144.169 91.583 C 144.068 103.949,144.148 103.192,142.895 103.660 C 141.745 104.091,141.619 104.086,141.051 103.598 L 140.583 103.195 140.568 90.096 C 140.559 82.891,140.522 76.967,140.485 76.930 C 140.447 76.894,140.400 77.918,140.379 79.206 C 140.336 81.904,140.425 81.691,139.295 81.797 C 138.812 81.843,138.362 81.963,138.294 82.065 C 138.227 82.167,138.165 81.612,138.158 80.833 C 138.150 80.054,138.092 79.288,138.030 79.131 C 137.837 78.645,137.988 104.004,138.182 104.724 C 138.511 105.947,139.507 106.463,141.839 106.623 C 145.075 106.845,150.812 105.484,152.333 104.133 C 153.324 103.254,153.242 104.346,153.333 90.774 L 153.417 78.417 153.945 77.375 C 154.552 76.179,154.544 75.998,153.930 77.046 M102.707 82.208 L 102.667 88.000 102.083 88.000 C 101.763 88.000,101.500 88.064,101.500 88.141 C 101.500 88.219,100.487 88.381,99.250 88.500 C 98.013 88.619,97.000 88.773,97.000 88.841 C 97.000 88.909,96.325 89.018,95.500 89.083 C 94.675 89.149,94.000 89.269,94.000 89.351 C 94.000 89.433,93.814 89.500,93.587 89.500 L 93.174 89.500 93.125 86.125 C 93.098 84.269,93.059 87.016,93.038 92.230 C 93.000 101.684,93.001 101.712,93.360 102.293 C 94.083 103.463,96.197 104.487,99.583 105.309 C 102.318 105.972,103.607 106.084,108.500 106.078 C 113.865 106.071,114.378 106.000,117.429 104.835 C 118.431 104.453,120.434 103.702,121.882 103.168 C 124.934 102.041,125.923 101.392,127.175 99.695 L 127.995 98.583 127.981 89.417 C 127.973 84.375,127.913 80.063,127.847 79.833 C 127.780 79.604,127.760 80.410,127.802 81.625 L 127.878 83.833 127.105 83.833 C 126.681 83.833,126.333 83.897,126.333 83.975 C 126.333 84.053,125.321 84.214,124.083 84.333 C 122.846 84.453,121.833 84.605,121.833 84.672 C 121.833 84.739,121.196 84.847,120.417 84.912 C 119.638 84.977,119.000 85.098,119.000 85.182 C 119.000 85.265,118.700 85.333,118.333 85.333 L 117.667 85.333 117.630 84.208 C 117.610 83.590,117.554 87.184,117.505 92.196 C 117.393 103.729,117.783 102.921,112.333 102.910 C 107.419 102.901,104.670 101.915,103.241 99.652 L 102.836 99.010 102.792 87.713 C 102.767 81.500,102.729 79.023,102.707 82.208 M127.020 77.337 C 127.273 78.083,127.415 78.228,127.262 77.583 C 127.196 77.308,127.071 77.010,126.984 76.920 C 126.896 76.831,126.912 77.018,127.020 77.337 " stroke="none" fill="#3e91fb" fill-rule="evenodd"></path><path id="path2" d="M88.750 18.462 C 87.375 18.602,86.225 18.781,86.194 18.858 C 86.164 18.936,85.433 19.000,84.569 19.000 C 83.634 19.000,83.000 19.067,83.000 19.167 C 83.000 19.386,82.115 19.382,81.894 19.161 C 81.776 19.043,81.722 19.069,81.722 19.244 C 81.722 19.385,81.779 19.500,81.848 19.500 C 81.917 19.500,82.066 19.781,82.177 20.125 C 82.289 20.469,82.485 20.811,82.612 20.886 C 82.876 21.042,83.667 22.244,83.667 22.491 C 83.667 22.762,84.628 24.191,84.972 24.433 C 85.294 24.658,86.697 24.511,87.583 24.159 C 87.767 24.086,88.442 23.852,89.083 23.638 C 89.725 23.425,90.287 23.205,90.333 23.151 C 90.551 22.891,94.273 21.031,95.026 20.806 C 95.940 20.532,95.793 20.232,94.386 19.505 C 94.003 19.307,93.601 19.038,93.492 18.908 C 93.384 18.777,93.221 18.717,93.129 18.773 C 93.038 18.830,92.915 18.810,92.856 18.730 C 92.656 18.454,92.005 18.167,91.627 18.187 C 91.420 18.199,90.125 18.322,88.750 18.462 M57.500 22.000 C 57.500 22.099,56.861 22.167,55.917 22.167 C 54.972 22.167,54.333 22.234,54.333 22.333 C 54.333 22.425,54.003 22.500,53.599 22.500 C 52.951 22.500,52.875 22.539,52.950 22.827 C 52.997 23.007,53.084 23.145,53.143 23.133 C 53.383 23.085,54.268 23.393,54.521 23.613 C 54.670 23.742,54.987 23.883,55.225 23.926 C 55.463 23.970,55.852 24.079,56.090 24.169 C 57.032 24.527,58.250 24.056,58.250 23.333 C 58.250 23.196,58.333 23.098,58.434 23.117 C 58.541 23.136,58.586 22.989,58.543 22.761 C 58.502 22.547,58.551 22.322,58.651 22.260 C 59.029 22.026,58.810 21.833,58.167 21.833 C 57.800 21.833,57.500 21.908,57.500 22.000 M56.910 25.343 C 56.659 25.705,56.370 26.000,56.267 26.000 C 56.164 26.000,55.988 26.147,55.876 26.327 C 55.561 26.831,56.796 27.299,59.667 27.761 C 60.446 27.887,61.421 28.064,61.833 28.155 C 67.477 29.401,74.541 29.462,80.638 28.318 C 81.616 28.134,82.942 27.912,83.583 27.825 C 84.225 27.737,85.125 27.547,85.583 27.403 C 86.042 27.259,86.515 27.110,86.635 27.072 C 86.898 26.989,86.753 26.752,85.781 25.678 L 85.145 24.975 83.520 25.403 C 82.627 25.639,81.263 25.901,80.489 25.986 C 79.716 26.070,78.483 26.218,77.750 26.314 C 73.963 26.808,72.936 26.875,70.735 26.773 C 68.150 26.653,67.054 26.559,65.583 26.331 C 65.033 26.245,63.890 26.098,63.042 26.003 C 61.643 25.846,58.707 25.197,57.748 24.833 C 57.418 24.707,57.302 24.777,56.910 25.343 M71.781 35.068 C 71.259 35.299,70.748 35.633,70.388 35.978 C 70.121 36.235,70.138 36.247,69.871 35.625 C 69.619 35.039,69.441 35.048,68.999 35.669 C 68.802 35.945,68.571 36.127,68.486 36.075 C 67.761 35.627,67.183 38.950,67.867 39.633 C 68.106 39.873,69.070 39.897,69.487 39.673 C 69.652 39.586,70.054 39.496,70.382 39.473 C 70.710 39.451,70.941 39.373,70.896 39.300 C 70.851 39.227,70.931 39.167,71.073 39.167 C 71.216 39.167,71.333 39.087,71.333 38.990 C 71.333 38.893,71.420 38.867,71.526 38.933 C 71.637 39.002,71.673 38.979,71.611 38.878 C 71.552 38.783,71.615 38.612,71.752 38.498 C 71.888 38.385,72.000 38.195,72.000 38.075 C 72.000 37.488,72.809 37.172,73.510 37.486 C 74.302 37.841,74.326 37.862,74.410 38.298 C 74.477 38.646,74.976 39.500,75.112 39.500 C 75.153 39.500,75.145 39.433,75.094 39.351 C 75.043 39.269,75.108 39.161,75.237 39.111 C 75.367 39.062,75.514 39.129,75.564 39.261 C 75.615 39.392,75.854 39.500,76.096 39.500 C 76.433 39.500,76.511 39.437,76.432 39.230 C 76.354 39.026,76.406 38.980,76.643 39.042 C 77.460 39.256,76.330 36.601,75.213 35.680 C 74.276 34.907,72.756 34.636,71.781 35.068 M294.567 45.638 C 291.653 46.645,280.333 56.679,280.333 58.255 C 280.333 58.656,282.104 58.152,282.500 57.639 C 283.496 56.348,284.598 55.397,285.750 54.833 C 286.935 54.254,287.000 54.309,287.000 55.892 L 287.000 57.284 287.875 57.202 C 288.356 57.157,288.787 57.065,288.833 56.997 C 288.879 56.929,289.535 56.819,290.292 56.753 C 291.048 56.686,291.667 56.579,291.667 56.513 C 291.667 56.448,292.544 56.303,293.617 56.191 C 294.690 56.080,295.580 55.972,295.595 55.952 C 295.753 55.747,295.768 45.334,295.610 45.339 C 295.504 45.342,295.035 45.476,294.567 45.638 M94.417 46.603 C 91.694 47.123,89.268 47.676,88.860 47.869 C 87.552 48.488,85.599 51.503,85.171 53.564 C 84.968 54.542,85.155 90.377,85.364 90.586 C 85.657 90.879,88.171 90.458,88.245 90.103 C 88.286 89.909,88.384 81.162,88.464 70.667 C 88.622 49.886,88.589 50.523,89.551 49.405 L 89.925 48.971 90.901 49.314 C 93.170 50.111,92.998 48.789,92.999 65.431 C 93.000 73.139,93.050 81.708,93.110 84.473 L 93.220 89.500 93.610 89.500 C 93.825 89.500,94.000 89.433,94.000 89.351 C 94.000 89.269,94.675 89.149,95.500 89.083 C 96.325 89.018,97.000 88.909,97.000 88.841 C 97.000 88.773,98.013 88.619,99.250 88.500 C 100.487 88.381,101.500 88.219,101.500 88.141 C 101.500 88.064,101.750 88.000,102.056 88.000 L 102.612 88.000 102.723 79.375 C 102.783 74.631,102.832 65.912,102.831 60.000 C 102.829 44.190,103.280 44.908,94.417 46.603 M61.864 47.292 C 61.917 47.749,61.920 47.750,63.250 47.752 C 63.983 47.753,64.665 47.806,64.765 47.870 C 64.893 47.952,64.979 54.262,65.059 69.368 C 65.187 93.663,65.201 94.167,65.775 94.167 C 65.990 94.167,66.167 94.101,66.167 94.020 C 66.167 93.939,66.804 93.820,67.583 93.755 C 68.362 93.690,69.000 93.576,69.000 93.503 C 69.000 93.429,69.675 93.315,70.500 93.250 C 71.325 93.185,72.000 93.077,72.000 93.011 C 72.000 92.945,72.750 92.815,73.668 92.722 C 74.585 92.630,75.376 92.513,75.425 92.464 C 75.474 92.415,75.561 82.369,75.618 70.139 L 75.721 47.904 75.045 47.369 L 74.369 46.833 68.090 46.833 L 61.811 46.833 61.864 47.292 M162.250 71.853 C 160.332 72.043,159.668 72.209,154.333 73.833 C 152.179 74.489,149.945 75.165,149.369 75.336 C 146.801 76.097,144.500 78.595,144.500 80.622 C 144.500 80.877,146.985 80.765,147.167 80.503 C 147.212 80.437,148.206 80.283,149.375 80.162 C 150.544 80.041,151.500 79.880,151.500 79.804 C 151.500 79.729,151.840 79.667,152.255 79.667 C 152.715 79.667,153.035 79.585,153.072 79.458 C 153.106 79.344,153.230 78.880,153.348 78.427 C 153.578 77.539,155.224 74.912,155.654 74.745 C 156.377 74.466,159.966 74.459,161.207 74.735 C 162.752 75.079,163.381 75.483,164.149 76.625 C 164.709 77.458,166.167 77.982,166.167 77.351 C 166.167 77.269,166.842 77.149,167.667 77.083 C 168.492 77.018,169.167 76.909,169.167 76.841 C 169.167 76.773,170.179 76.619,171.417 76.500 C 172.654 76.381,173.667 76.211,173.667 76.123 C 173.667 76.035,173.924 75.994,174.238 76.030 C 174.553 76.067,174.790 76.056,174.765 76.007 C 172.928 72.363,172.060 71.908,166.667 71.763 C 165.154 71.722,163.167 71.763,162.250 71.853 M137.015 73.182 C 136.794 73.270,136.007 73.850,135.265 74.471 C 134.523 75.091,133.560 75.852,133.125 76.161 C 132.058 76.919,132.118 76.926,133.625 76.221 C 135.293 75.440,135.791 75.371,136.382 75.835 C 137.337 76.587,138.160 78.908,138.180 80.903 C 138.187 81.644,138.231 82.156,138.277 82.042 C 138.323 81.927,138.636 81.832,138.972 81.831 C 140.309 81.826,140.282 81.868,140.413 79.592 C 140.642 75.621,138.941 72.412,137.015 73.182 M113.000 73.662 C 112.079 73.769,108.202 75.096,108.364 75.250 C 108.393 75.277,108.829 75.230,109.333 75.146 C 111.760 74.738,114.934 75.625,116.367 77.110 C 117.272 78.049,117.500 78.737,117.501 80.536 C 117.501 81.387,117.550 82.815,117.609 83.708 L 117.717 85.333 118.358 85.333 C 118.711 85.333,119.000 85.265,119.000 85.182 C 119.000 85.098,119.638 84.977,120.417 84.912 C 121.196 84.847,121.833 84.739,121.833 84.672 C 121.833 84.605,122.846 84.453,124.083 84.333 C 125.321 84.214,126.333 84.053,126.333 83.975 C 126.333 83.897,126.671 83.833,127.083 83.833 L 127.833 83.833 127.830 82.208 C 127.819 75.669,125.460 73.865,116.583 73.609 C 115.208 73.569,113.596 73.593,113.000 73.662 " stroke="none" fill="#59a0fb" fill-rule="evenodd"></path><path id="path3" d="M93.167 21.667 C 92.846 21.842,92.643 21.989,92.717 21.993 C 92.893 22.002,93.833 21.513,93.833 21.412 C 93.833 21.303,93.824 21.307,93.167 21.667 M70.708 29.290 C 71.235 29.323,72.098 29.323,72.625 29.290 C 73.152 29.257,72.721 29.230,71.667 29.230 C 70.612 29.230,70.181 29.257,70.708 29.290 M70.783 41.542 C 70.445 41.792,70.185 43.333,70.480 43.333 C 70.587 43.333,70.656 43.130,70.637 42.874 C 70.618 42.621,70.723 42.171,70.872 41.874 C 71.175 41.265,71.172 41.253,70.783 41.542 M72.463 46.789 C 72.855 46.824,73.455 46.824,73.796 46.788 C 74.137 46.752,73.817 46.723,73.083 46.724 C 72.350 46.724,72.071 46.754,72.463 46.789 M64.915 75.833 C 64.915 91.096,64.934 97.340,64.958 89.708 C 64.982 82.077,64.982 69.590,64.958 61.958 C 64.934 54.327,64.915 60.571,64.915 75.833 M102.914 73.917 C 102.914 87.392,102.934 92.880,102.958 86.112 C 102.982 79.344,102.982 68.319,102.958 61.612 C 102.934 54.905,102.914 60.442,102.914 73.917 M75.748 76.917 C 75.748 91.675,75.768 97.688,75.792 90.279 C 75.816 82.869,75.816 70.794,75.792 63.445 C 75.768 56.096,75.748 62.158,75.748 76.917 M92.915 76.667 C 92.915 90.554,92.934 96.235,92.958 89.292 C 92.982 82.348,92.982 70.985,92.958 64.042 C 92.934 57.098,92.915 62.779,92.915 76.667 M283.330 54.292 L 281.917 55.750 283.375 54.337 C 284.729 53.025,284.909 52.833,284.788 52.833 C 284.763 52.833,284.107 53.490,283.330 54.292 M286.744 63.583 C 286.744 68.533,286.766 70.534,286.792 68.030 C 286.818 65.526,286.817 61.476,286.792 59.030 C 286.766 56.584,286.744 58.633,286.744 63.583 M283.833 56.417 C 283.428 56.829,283.135 57.167,283.181 57.167 C 283.226 57.167,283.595 56.829,284.000 56.417 C 284.405 56.004,284.699 55.667,284.653 55.667 C 284.607 55.667,284.238 56.004,283.833 56.417 M278.070 66.917 C 278.070 68.750,278.094 69.523,278.124 68.634 C 278.154 67.745,278.154 66.245,278.124 65.301 C 278.095 64.356,278.070 65.083,278.070 66.917 M357.875 71.948 C 358.035 71.990,358.298 71.990,358.458 71.948 C 358.619 71.906,358.488 71.872,358.167 71.872 C 357.846 71.872,357.715 71.906,357.875 71.948 M248.125 72.290 C 248.790 72.322,249.877 72.322,250.542 72.290 C 251.206 72.259,250.662 72.233,249.333 72.233 C 248.004 72.233,247.460 72.259,248.125 72.290 M157.627 74.785 C 157.834 74.824,158.134 74.823,158.294 74.781 C 158.453 74.739,158.283 74.707,157.917 74.709 C 157.550 74.711,157.420 74.745,157.627 74.785 M159.127 74.785 C 159.334 74.824,159.634 74.823,159.794 74.781 C 159.953 74.739,159.783 74.707,159.417 74.709 C 159.050 74.711,158.920 74.745,159.127 74.785 M241.292 75.121 C 241.590 75.158,242.077 75.158,242.375 75.121 C 242.673 75.084,242.429 75.053,241.833 75.053 C 241.237 75.053,240.994 75.084,241.292 75.121 M278.228 77.917 C 278.228 78.833,278.256 79.187,278.290 78.703 C 278.324 78.218,278.323 77.468,278.289 77.036 C 278.255 76.604,278.227 77.000,278.228 77.917 M224.580 91.583 C 224.580 99.742,224.600 103.055,224.625 98.946 C 224.650 94.837,224.650 88.162,224.625 84.112 C 224.600 80.063,224.580 83.425,224.580 91.583 M217.709 77.583 C 217.711 77.950,217.745 78.080,217.785 77.873 C 217.824 77.666,217.823 77.366,217.781 77.206 C 217.739 77.047,217.707 77.217,217.709 77.583 M330.000 78.417 C 329.595 78.829,329.301 79.167,329.347 79.167 C 329.393 79.167,329.762 78.829,330.167 78.417 C 330.572 78.004,330.865 77.667,330.819 77.667 C 330.774 77.667,330.405 78.004,330.000 78.417 M364.079 90.500 C 364.079 97.421,364.100 100.252,364.125 96.792 C 364.150 93.331,364.150 87.669,364.125 84.208 C 364.100 80.748,364.079 83.579,364.079 90.500 M175.913 92.500 C 175.913 100.429,175.933 103.673,175.958 99.708 C 175.983 95.744,175.983 89.256,175.958 85.292 C 175.933 81.327,175.913 84.571,175.913 92.500 M354.705 79.333 C 354.705 79.654,354.740 79.785,354.782 79.625 C 354.823 79.465,354.823 79.202,354.782 79.042 C 354.740 78.881,354.705 79.012,354.705 79.333 M153.412 91.083 C 153.412 97.683,153.433 100.359,153.458 97.029 C 153.484 93.700,153.484 88.300,153.458 85.029 C 153.433 81.759,153.412 84.483,153.412 91.083 M221.746 93.000 C 221.746 100.379,221.767 103.398,221.792 99.708 C 221.817 96.019,221.817 89.981,221.792 86.292 C 221.767 82.602,221.746 85.621,221.746 93.000 M117.412 89.667 C 117.412 95.121,117.433 97.352,117.458 94.625 C 117.484 91.898,117.484 87.435,117.458 84.708 C 117.433 81.981,117.412 84.212,117.412 89.667 M320.906 80.375 L 320.417 80.917 320.958 80.427 C 321.463 79.971,321.577 79.833,321.448 79.833 C 321.419 79.833,321.175 80.077,320.906 80.375 M128.078 89.417 C 128.078 94.550,128.099 96.674,128.125 94.137 C 128.151 91.600,128.151 87.400,128.125 84.804 C 128.099 82.207,128.078 84.283,128.078 89.417 M250.705 81.333 C 250.705 81.654,250.740 81.785,250.782 81.625 C 250.823 81.465,250.823 81.202,250.782 81.042 C 250.740 80.881,250.705 81.012,250.705 81.333 M144.078 91.417 C 144.078 96.825,144.099 99.013,144.125 96.280 C 144.151 93.546,144.151 89.121,144.125 86.446 C 144.099 83.772,144.078 86.008,144.078 91.417 M253.125 81.956 C 253.606 81.990,254.394 81.990,254.875 81.956 C 255.356 81.923,254.963 81.895,254.000 81.895 C 253.037 81.895,252.644 81.923,253.125 81.956 M299.627 86.118 C 299.834 86.158,300.134 86.156,300.294 86.115 C 300.453 86.073,300.283 86.040,299.917 86.042 C 299.550 86.044,299.420 86.078,299.627 86.118 M251.708 86.282 C 251.869 86.323,252.131 86.323,252.292 86.282 C 252.452 86.240,252.321 86.205,252.000 86.205 C 251.679 86.205,251.548 86.240,251.708 86.282 M258.667 88.417 C 258.978 88.737,259.270 89.000,259.315 89.000 C 259.361 89.000,259.144 88.737,258.833 88.417 C 258.522 88.096,258.230 87.833,258.185 87.833 C 258.139 87.833,258.356 88.096,258.667 88.417 M242.375 89.453 C 242.627 89.491,243.040 89.491,243.292 89.453 C 243.544 89.415,243.338 89.383,242.833 89.383 C 242.329 89.383,242.123 89.415,242.375 89.453 M235.792 89.618 C 235.998 89.657,236.335 89.657,236.542 89.618 C 236.748 89.578,236.579 89.545,236.167 89.545 C 235.754 89.545,235.585 89.578,235.792 89.618 M237.625 89.621 C 237.923 89.658,238.410 89.658,238.708 89.621 C 239.006 89.584,238.762 89.553,238.167 89.553 C 237.571 89.553,237.327 89.584,237.625 89.621 M228.209 96.583 C 228.211 96.950,228.245 97.080,228.285 96.873 C 228.324 96.666,228.323 96.366,228.281 96.206 C 228.239 96.047,228.207 96.217,228.209 96.583 M253.050 97.333 C 253.050 97.837,253.081 98.044,253.119 97.792 C 253.158 97.540,253.158 97.127,253.119 96.875 C 253.081 96.623,253.050 96.829,253.050 97.333 M328.826 97.375 C 329.517 98.111,329.667 98.243,329.667 98.118 C 329.667 98.091,329.310 97.735,328.875 97.326 L 328.083 96.583 328.826 97.375 M126.158 100.958 L 125.583 101.583 126.208 101.009 C 126.790 100.474,126.910 100.333,126.783 100.333 C 126.755 100.333,126.474 100.615,126.158 100.958 M112.128 102.954 C 112.428 102.991,112.878 102.990,113.128 102.952 C 113.378 102.914,113.133 102.884,112.583 102.885 C 112.033 102.886,111.828 102.917,112.128 102.954 M248.377 104.286 C 248.631 104.325,249.006 104.324,249.211 104.284 C 249.416 104.244,249.208 104.213,248.750 104.214 C 248.292 104.216,248.124 104.248,248.377 104.286 M80.542 105.782 C 80.702 105.823,80.965 105.823,81.125 105.782 C 81.285 105.740,81.154 105.705,80.833 105.705 C 80.512 105.705,80.381 105.740,80.542 105.782 M242.542 106.115 C 242.702 106.157,242.965 106.157,243.125 106.115 C 243.285 106.073,243.154 106.039,242.833 106.039 C 242.512 106.039,242.381 106.073,242.542 106.115 M105.208 106.282 C 105.369 106.323,105.631 106.323,105.792 106.282 C 105.952 106.240,105.821 106.205,105.500 106.205 C 105.179 106.205,105.048 106.240,105.208 106.282 M249.458 106.287 C 249.756 106.324,250.244 106.324,250.542 106.287 C 250.840 106.250,250.596 106.220,250.000 106.220 C 249.404 106.220,249.160 106.250,249.458 106.287 M67.208 106.448 C 67.369 106.490,67.631 106.490,67.792 106.448 C 67.952 106.406,67.821 106.372,67.500 106.372 C 67.179 106.372,67.048 106.406,67.208 106.448 M197.464 106.456 C 197.948 106.490,198.698 106.490,199.131 106.456 C 199.563 106.421,199.167 106.394,198.250 106.394 C 197.333 106.395,196.980 106.423,197.464 106.456 M333.455 106.454 C 333.750 106.490,334.275 106.491,334.621 106.455 C 334.967 106.419,334.725 106.389,334.083 106.388 C 333.442 106.387,333.159 106.417,333.455 106.454 M337.211 106.453 C 337.464 106.491,337.839 106.490,338.044 106.451 C 338.249 106.411,338.042 106.380,337.583 106.381 C 337.125 106.382,336.957 106.415,337.211 106.453 M78.548 106.623 C 79.078 106.657,79.903 106.656,80.381 106.623 C 80.859 106.589,80.425 106.562,79.417 106.562 C 78.408 106.563,78.017 106.590,78.548 106.623 M142.208 106.782 C 142.369 106.823,142.631 106.823,142.792 106.782 C 142.952 106.740,142.821 106.705,142.500 106.705 C 142.179 106.705,142.048 106.740,142.208 106.782 " stroke="none" fill="#3366a8" fill-rule="evenodd"></path><path id="path4" d="M68.208 29.115 C 68.369 29.157,68.631 29.157,68.792 29.115 C 68.952 29.073,68.821 29.039,68.500 29.039 C 68.179 29.039,68.048 29.073,68.208 29.115 M75.525 42.041 C 75.509 42.339,75.478 42.725,75.456 42.899 C 75.434 43.072,75.492 43.241,75.583 43.273 C 75.680 43.307,75.750 42.988,75.750 42.514 C 75.750 41.589,75.570 41.210,75.525 42.041 M77.343 42.000 L 77.294 42.583 77.167 42.083 C 77.060 41.663,77.036 41.729,77.020 42.494 C 77.002 43.320,77.024 43.381,77.261 43.144 C 77.443 42.962,77.502 42.662,77.457 42.150 C 77.396 41.464,77.388 41.454,77.343 42.000 M67.734 45.083 L 67.750 46.083 68.750 46.448 C 69.300 46.649,69.797 46.818,69.855 46.823 C 69.913 46.829,70.044 46.500,70.147 46.093 C 70.369 45.210,70.373 44.932,70.155 45.476 C 70.050 45.738,69.911 45.835,69.735 45.767 C 69.591 45.712,69.108 45.667,68.662 45.667 L 67.852 45.667 67.784 44.875 C 67.730 44.240,67.720 44.281,67.734 45.083 M61.667 47.333 C 61.667 47.608,61.729 47.833,61.804 47.833 C 61.880 47.833,61.909 47.608,61.869 47.333 C 61.829 47.058,61.767 46.833,61.731 46.833 C 61.696 46.833,61.667 47.058,61.667 47.333 M75.714 49.417 C 75.716 49.875,75.748 50.043,75.786 49.789 C 75.825 49.536,75.824 49.161,75.784 48.956 C 75.744 48.751,75.713 48.958,75.714 49.417 M280.372 62.167 C 280.372 62.487,280.406 62.619,280.448 62.458 C 280.490 62.298,280.490 62.035,280.448 61.875 C 280.406 61.715,280.372 61.846,280.372 62.167 M280.228 68.250 C 280.228 69.167,280.256 69.520,280.290 69.036 C 280.324 68.552,280.323 67.802,280.289 67.369 C 280.255 66.937,280.227 67.333,280.228 68.250 M275.460 70.451 C 275.668 70.491,275.968 70.490,276.127 70.448 C 276.286 70.406,276.117 70.374,275.750 70.375 C 275.383 70.377,275.253 70.411,275.460 70.451 M277.294 70.451 C 277.501 70.491,277.801 70.490,277.960 70.448 C 278.120 70.406,277.950 70.374,277.583 70.375 C 277.217 70.377,277.086 70.411,277.294 70.451 M164.875 71.624 C 165.494 71.656,166.506 71.656,167.125 71.624 C 167.744 71.592,167.237 71.565,166.000 71.565 C 164.762 71.565,164.256 71.592,164.875 71.624 M359.128 71.954 C 359.428 71.991,359.878 71.990,360.128 71.952 C 360.378 71.914,360.133 71.884,359.583 71.885 C 359.033 71.886,358.828 71.917,359.128 71.954 M337.294 72.951 C 337.501 72.991,337.801 72.990,337.960 72.948 C 338.120 72.906,337.950 72.874,337.583 72.875 C 337.217 72.877,337.086 72.911,337.294 72.951 M340.375 72.948 C 340.535 72.990,340.798 72.990,340.958 72.948 C 341.119 72.906,340.987 72.872,340.667 72.872 C 340.346 72.872,340.215 72.906,340.375 72.948 M118.375 73.615 C 118.535 73.657,118.798 73.657,118.958 73.615 C 119.119 73.573,118.987 73.539,118.667 73.539 C 118.346 73.539,118.215 73.573,118.375 73.615 M269.127 73.618 C 269.334 73.658,269.634 73.656,269.794 73.615 C 269.953 73.573,269.783 73.540,269.417 73.542 C 269.050 73.544,268.920 73.578,269.127 73.618 M270.460 73.618 C 270.668 73.658,270.968 73.656,271.127 73.615 C 271.286 73.573,271.117 73.540,270.750 73.542 C 270.383 73.544,270.253 73.578,270.460 73.618 M107.571 75.413 C 107.395 75.547,107.325 75.657,107.417 75.659 C 107.664 75.663,108.088 75.365,107.983 75.261 C 107.933 75.211,107.748 75.279,107.571 75.413 M363.872 77.500 C 363.872 77.821,363.906 77.952,363.948 77.792 C 363.990 77.631,363.990 77.369,363.948 77.208 C 363.906 77.048,363.872 77.179,363.872 77.500 M280.231 79.917 C 280.232 81.108,280.258 81.574,280.290 80.951 C 280.323 80.329,280.322 79.354,280.290 78.785 C 280.257 78.216,280.231 78.725,280.231 79.917 M250.881 79.917 C 250.882 80.375,250.915 80.543,250.953 80.289 C 250.991 80.036,250.990 79.661,250.951 79.456 C 250.911 79.251,250.880 79.458,250.881 79.917 M259.724 80.417 C 259.724 81.150,259.754 81.429,259.789 81.037 C 259.824 80.645,259.824 80.045,259.788 79.704 C 259.752 79.363,259.723 79.683,259.724 80.417 M165.372 93.032 C 165.351 100.520,165.390 106.682,165.458 106.724 C 165.572 106.794,165.570 97.181,165.455 84.333 C 165.431 81.629,165.394 85.543,165.372 93.032 M278.249 92.917 L 278.250 106.417 279.250 106.429 L 280.250 106.440 279.293 106.379 L 278.335 106.317 278.291 92.867 L 278.247 79.417 278.249 92.917 M347.039 80.000 C 347.039 80.321,347.073 80.452,347.115 80.292 C 347.157 80.131,347.157 79.869,347.115 79.708 C 347.073 79.548,347.039 79.679,347.039 80.000 M140.579 91.333 C 140.579 97.704,140.600 100.310,140.625 97.125 C 140.650 93.940,140.650 88.727,140.625 85.542 C 140.600 82.356,140.579 84.962,140.579 91.333 M354.912 91.750 C 354.912 98.350,354.933 101.026,354.958 97.696 C 354.984 94.366,354.984 88.966,354.958 85.696 C 354.933 82.426,354.912 85.150,354.912 91.750 M208.579 90.833 C 208.579 96.746,208.599 99.165,208.625 96.208 C 208.650 93.252,208.650 88.415,208.625 85.458 C 208.599 82.502,208.579 84.921,208.579 90.833 M286.667 88.967 L 286.750 96.917 286.793 89.093 C 286.817 84.791,286.780 81.213,286.710 81.143 C 286.640 81.074,286.621 84.594,286.667 88.967 M185.212 82.333 C 185.212 82.746,185.245 82.915,185.284 82.708 C 185.324 82.502,185.324 82.165,185.284 81.958 C 185.245 81.752,185.212 81.921,185.212 82.333 M251.211 81.953 C 251.464 81.991,251.839 81.990,252.044 81.951 C 252.249 81.911,252.042 81.880,251.583 81.881 C 251.125 81.882,250.957 81.915,251.211 81.953 M256.625 81.957 C 257.198 81.989,258.135 81.989,258.708 81.957 C 259.281 81.924,258.813 81.898,257.667 81.898 C 256.521 81.898,256.052 81.924,256.625 81.957 M300.877 86.120 C 301.131 86.158,301.506 86.157,301.711 86.117 C 301.916 86.078,301.708 86.046,301.250 86.048 C 300.792 86.049,300.624 86.081,300.877 86.120 M244.292 86.284 C 244.498 86.324,244.835 86.324,245.042 86.284 C 245.248 86.245,245.079 86.212,244.667 86.212 C 244.254 86.212,244.085 86.245,244.292 86.284 M247.458 86.291 C 248.215 86.322,249.452 86.322,250.208 86.291 C 250.965 86.260,250.346 86.235,248.833 86.235 C 247.321 86.235,246.702 86.260,247.458 86.291 M230.000 87.219 C 230.000 87.248,230.244 87.491,230.542 87.760 L 231.083 88.250 230.594 87.708 C 230.138 87.203,230.000 87.090,230.000 87.219 M325.372 88.667 C 325.372 88.987,325.406 89.119,325.448 88.958 C 325.490 88.798,325.490 88.535,325.448 88.375 C 325.406 88.215,325.372 88.346,325.372 88.667 M240.288 89.454 C 240.584 89.490,241.109 89.491,241.455 89.455 C 241.800 89.419,241.558 89.389,240.917 89.388 C 240.275 89.387,239.992 89.417,240.288 89.454 M243.958 89.451 C 244.165 89.491,244.502 89.491,244.708 89.451 C 244.915 89.411,244.746 89.379,244.333 89.379 C 243.921 89.379,243.752 89.411,243.958 89.451 M228.391 95.091 C 228.337 95.232,228.339 95.394,228.396 95.452 C 228.453 95.509,228.500 95.432,228.500 95.281 C 228.500 95.033,228.934 95.001,232.792 94.958 L 237.083 94.911 232.786 94.872 C 229.044 94.838,228.477 94.867,228.391 95.091 M261.381 95.583 C 261.382 96.042,261.415 96.209,261.453 95.956 C 261.491 95.703,261.490 95.328,261.451 95.123 C 261.411 94.918,261.380 95.125,261.381 95.583 M261.383 98.000 C 261.383 98.504,261.415 98.710,261.453 98.458 C 261.491 98.206,261.491 97.794,261.453 97.542 C 261.415 97.290,261.383 97.496,261.383 98.000 M117.372 100.000 C 117.372 100.321,117.406 100.452,117.448 100.292 C 117.490 100.131,117.490 99.869,117.448 99.708 C 117.406 99.548,117.372 99.679,117.372 100.000 M319.250 100.500 C 319.794 101.050,320.277 101.500,320.323 101.500 C 320.369 101.500,319.961 101.050,319.417 100.500 C 318.872 99.950,318.390 99.500,318.344 99.500 C 318.298 99.500,318.706 99.950,319.250 100.500 M103.833 100.417 C 104.144 100.737,104.436 101.000,104.482 101.000 C 104.528 101.000,104.311 100.737,104.000 100.417 C 103.689 100.096,103.397 99.833,103.351 99.833 C 103.305 99.833,103.522 100.096,103.833 100.417 M230.333 101.583 C 230.644 101.904,230.936 102.167,230.982 102.167 C 231.028 102.167,230.811 101.904,230.500 101.583 C 230.189 101.263,229.897 101.000,229.851 101.000 C 229.805 101.000,230.022 101.263,230.333 101.583 M85.050 102.500 C 85.050 103.004,85.081 103.210,85.119 102.958 C 85.158 102.706,85.158 102.294,85.119 102.042 C 85.081 101.790,85.050 101.996,85.050 102.500 M110.544 102.953 C 110.797 102.991,111.172 102.990,111.377 102.951 C 111.582 102.911,111.375 102.880,110.917 102.881 C 110.458 102.882,110.291 102.915,110.544 102.953 M250.906 103.708 L 250.417 104.250 250.958 103.760 C 251.463 103.304,251.577 103.167,251.448 103.167 C 251.419 103.167,251.175 103.410,250.906 103.708 M65.039 104.000 C 65.039 104.321,65.073 104.452,65.115 104.292 C 65.157 104.131,65.157 103.869,65.115 103.708 C 65.073 103.548,65.039 103.679,65.039 104.000 M202.708 103.615 C 202.869 103.657,203.131 103.657,203.292 103.615 C 203.452 103.573,203.321 103.539,203.000 103.539 C 202.679 103.539,202.548 103.573,202.708 103.615 M342.460 103.785 C 342.668 103.824,342.968 103.823,343.127 103.781 C 343.286 103.739,343.117 103.707,342.750 103.709 C 342.383 103.711,342.253 103.745,342.460 103.785 M363.833 104.988 C 363.833 106.227,363.810 106.315,363.458 106.382 C 363.137 106.444,363.149 106.458,363.542 106.477 L 364.000 106.500 364.000 105.083 C 364.000 104.304,363.962 103.667,363.917 103.667 C 363.871 103.667,363.833 104.261,363.833 104.988 M82.377 105.786 C 82.631 105.825,83.006 105.824,83.211 105.784 C 83.416 105.744,83.208 105.713,82.750 105.714 C 82.292 105.716,82.124 105.748,82.377 105.786 M85.881 105.957 C 86.412 105.990,87.237 105.990,87.714 105.956 C 88.192 105.922,87.758 105.895,86.750 105.896 C 85.742 105.896,85.351 105.924,85.881 105.957 M243.542 106.115 C 243.702 106.157,243.965 106.157,244.125 106.115 C 244.285 106.073,244.154 106.039,243.833 106.039 C 243.512 106.039,243.381 106.073,243.542 106.115 M251.875 106.115 C 252.035 106.157,252.298 106.157,252.458 106.115 C 252.619 106.073,252.487 106.039,252.167 106.039 C 251.846 106.039,251.715 106.073,251.875 106.115 M107.125 106.290 C 107.790 106.322,108.877 106.322,109.542 106.290 C 110.206 106.259,109.662 106.233,108.333 106.233 C 107.004 106.233,106.460 106.259,107.125 106.290 M195.208 106.282 C 195.369 106.323,195.631 106.323,195.792 106.282 C 195.952 106.240,195.821 106.205,195.500 106.205 C 195.179 106.205,195.048 106.240,195.208 106.282 M201.294 106.285 C 201.501 106.324,201.801 106.323,201.960 106.281 C 202.120 106.239,201.950 106.207,201.583 106.209 C 201.217 106.211,201.086 106.245,201.294 106.285 M299.125 106.289 C 299.515 106.324,300.152 106.324,300.542 106.289 C 300.931 106.254,300.612 106.225,299.833 106.225 C 299.054 106.225,298.735 106.254,299.125 106.289 M69.884 106.458 C 70.967 106.487,72.692 106.487,73.718 106.458 C 74.744 106.428,73.858 106.405,71.750 106.405 C 69.642 106.405,68.802 106.429,69.884 106.458 M222.458 106.455 C 222.848 106.490,223.485 106.490,223.875 106.455 C 224.265 106.420,223.946 106.392,223.167 106.392 C 222.387 106.392,222.069 106.420,222.458 106.455 M335.542 106.453 C 335.794 106.491,336.206 106.491,336.458 106.453 C 336.710 106.415,336.504 106.383,336.000 106.383 C 335.496 106.383,335.290 106.415,335.542 106.453 M167.699 106.791 C 168.679 106.820,170.329 106.820,171.366 106.791 C 172.402 106.762,171.600 106.738,169.583 106.738 C 167.567 106.738,166.719 106.762,167.699 106.791 " stroke="none" fill="#3d7cce" fill-rule="evenodd"></path></g></svg>